<svg width="1920" height="881" viewBox="0 0 1920 881" fill="none" xmlns="http://www.w3.org/2000/svg">
<g clip-path="url(#clip0_74_482)">
<rect width="1920" height="881" fill="#CFC4B2"/>
<path d="M925 753C893.333 753 866.333 748.833 844 740.5C822 731.833 805.167 719 793.5 702C782.167 685 776.5 664.167 776.5 639.5C776.5 623.167 778 607.167 781 591.5C784.333 575.833 788.167 562.167 792.5 550.5L836 560C833.667 569.667 831.833 578.333 830.5 586C829.5 593.333 829 602.167 829 612.5C829 626.167 832.333 637 839 645C845.667 653 856.833 658.833 872.5 662.5C888.5 666.167 910.5 668 938.5 668C967.5 668 994.5 666.833 1019.5 664.5C1044.83 661.833 1068.67 658.167 1091 653.5C1088.67 638.167 1085.33 622.667 1081 607C1077 591.333 1072.17 576.167 1066.5 561.5L1134.5 530.5C1139.83 545.5 1144 561.833 1147 579.5C1150 596.833 1151.5 613 1151.5 628C1151.5 661 1142.33 686.667 1124 705C1105.67 723.333 1080.17 736 1047.5 743C1014.83 749.667 974 753 925 753ZM930 574.5C914 560.167 898 545.833 882 531.5L924 482C932 488.333 947.833 502.167 971.5 523.5L930 574.5ZM996.5 574.5C980.5 560.167 964.5 545.833 948.5 531.5L990.5 482C998.5 488.333 1014.33 502.167 1038 523.5L996.5 574.5ZM1222.02 873C1208.68 873 1196.68 871.833 1186.02 869.5C1175.68 867.167 1165.68 863.167 1156.02 857.5V794.5C1169.02 795.5 1180.18 796 1189.52 796C1211.52 796 1230.85 793 1247.52 787C1264.52 781 1278.02 772 1288.02 760C1298.02 748.333 1303.68 734 1305.02 717C1299.02 700.667 1291.85 685 1283.52 670C1275.52 654.667 1264.18 635 1249.52 611L1310.02 569.5C1327.02 600.833 1339.85 629 1348.52 654C1357.18 678.667 1361.52 702.5 1361.52 725.5C1361.52 751.833 1355.18 776.333 1342.52 799C1330.18 821.667 1313.35 839.667 1292.02 853C1270.68 866.333 1247.35 873 1222.02 873ZM1647.48 753C1631.81 753 1618.98 751.167 1608.98 747.5C1598.98 744.167 1590.64 739 1583.98 732C1577.64 724.667 1571.48 715 1565.48 703C1554.14 678.333 1542.81 653.667 1531.48 629C1513.81 587.333 1500.31 554.333 1490.98 530L1558.98 496.5C1567.98 524.833 1576.98 553.333 1585.98 582C1591.64 599.333 1596.81 615 1601.48 629C1606.14 642.667 1609.31 651.333 1610.98 655C1613.64 660.333 1618.14 664 1624.48 666C1631.14 667.667 1641.64 668.5 1655.98 668.5C1660.98 668.5 1664.81 672 1667.48 679C1670.14 686 1671.48 696.833 1671.48 711.5C1671.48 722.167 1668.98 731.833 1663.98 740.5C1659.31 748.833 1653.81 753 1647.48 753ZM1470.98 753C1447.31 753 1429.31 747.167 1416.98 735.5C1404.98 723.5 1398.98 706.667 1398.98 685C1398.98 672.667 1400.14 660.167 1402.48 647.5L1431.48 645C1432.14 651.333 1433.64 656.333 1435.98 660C1438.64 663.333 1442.64 665.833 1447.98 667.5C1453.31 669.167 1460.31 670 1468.98 670C1484.98 670 1503.14 668.333 1523.48 665C1543.81 661.667 1561.81 657 1577.48 651L1587.48 700.5C1572.81 716.833 1555.64 729.667 1535.98 739C1516.64 748.333 1494.98 753 1470.98 753ZM1647.4 753C1642.07 753 1638.24 749.667 1635.9 743C1633.24 736 1631.9 725.333 1631.9 711C1631.9 700 1632.9 691.5 1634.9 685.5C1636.57 679.167 1639.24 674.833 1642.9 672.5C1646.24 669.833 1650.57 668.5 1655.9 668.5H1674.9C1702.9 668.5 1723.07 668.167 1735.4 667.5C1752.74 666.5 1768.4 665.167 1782.4 663.5C1796.4 661.833 1810.07 659.333 1823.4 656C1823.07 648 1822.9 642 1822.9 638C1822.9 634 1822.74 628.167 1822.4 620.5L1817.9 614C1817.24 601.667 1814.07 591.333 1808.4 583C1803.07 574.333 1796.24 567.833 1787.9 563.5C1779.9 559.167 1771.24 557 1761.9 557C1750.57 557 1741.57 559.5 1734.9 564.5C1728.24 569.5 1724.9 575.5 1724.9 582.5C1724.9 588.833 1727.74 593.333 1733.4 596C1739.07 598.667 1749.4 600 1764.4 600C1775.07 600 1785.24 599 1794.9 597C1804.9 595 1818.4 591.667 1835.4 587L1838.4 626.5C1825.4 634.833 1812.07 640.833 1798.4 644.5C1784.74 647.833 1770.07 649.5 1754.4 649.5C1736.74 649.5 1722.57 647 1711.9 642C1701.57 637 1694.07 629.833 1689.4 620.5C1685.07 610.833 1682.9 598.667 1682.9 584C1682.9 566.333 1686.24 549.667 1692.9 534C1699.9 518 1709.74 505.167 1722.4 495.5C1735.4 485.5 1750.4 480.5 1767.4 480.5C1785.4 480.5 1801.74 486.333 1816.4 498C1831.07 509.333 1842.74 525.833 1851.4 547.5C1860.07 568.833 1864.4 594 1864.4 623C1864.4 648.667 1861.07 669.5 1854.4 685.5C1847.74 701.167 1838.24 713.333 1825.9 722C1815.9 729 1802.57 734.833 1785.9 739.5C1769.57 743.833 1751.24 747.167 1730.9 749.5C1712.24 751.833 1684.4 753 1647.4 753ZM1736.9 457.5C1720.9 443.167 1704.9 428.833 1688.9 414.5L1730.9 365C1738.9 371.333 1754.74 385.167 1778.4 406.5L1736.9 457.5ZM1803.4 457.5C1787.4 443.167 1771.4 428.833 1755.4 414.5L1797.4 365C1805.4 371.333 1821.24 385.167 1844.9 406.5L1803.4 457.5Z" fill="#141414"/>
<path d="M52 328.5C74.6667 319.5 100.833 310.5 130.5 301.5L132.5 334.5C108.167 330.5 90 322 78 309C66 296 60 279.167 60 258.5C60 243.167 63.3333 229.333 70 217C77 204.667 86.8333 195 99.5 188C112.167 180.667 126.833 177 143.5 177C154.5 177 165.167 178.667 175.5 182C186.167 185 195.333 189.333 203 195L197 248C189.667 246 182.667 244.5 176 243.5C169.333 242.167 161.667 241.5 153 241.5C137.333 241.5 125.5 243.667 117.5 248C109.833 252 106 258.167 106 266.5C106 274.167 109.5 280.333 116.5 285C123.5 289.333 134.167 291.5 148.5 291.5C157.5 291.5 167.333 290.667 178 289C189 287 202.333 284.167 218 280.5L226.5 344C169.5 356 117.167 369.167 69.5 383.5L52 328.5ZM389.656 370C366.99 370 348.49 366.667 334.156 360C320.156 353 309.656 342.167 302.656 327.5C295.656 312.5 291.656 293 290.656 269L280.656 31.5L349.156 8.49999L352.156 248C352.49 257.667 353.99 265.167 356.656 270.5C359.323 275.833 363.823 279.667 370.156 282C376.823 284.333 386.156 285.5 398.156 285.5C404.823 285.5 409.823 290 413.156 299C416.49 308 418.156 318.833 418.156 331.5C418.156 343.167 415.323 352.5 409.656 359.5C404.323 366.5 397.656 370 389.656 370ZM389.617 370C384.617 370 380.784 366.667 378.117 360C375.451 353 374.117 342.667 374.117 329C374.117 321.333 375.284 314.167 377.617 307.5C379.617 300.833 382.451 295.5 386.117 291.5C389.784 287.5 393.784 285.5 398.117 285.5C411.117 285.5 422.451 285.167 432.117 284.5C441.784 283.833 451.451 282.833 461.117 281.5C461.784 259.5 462.284 237.667 462.617 216C462.951 211.667 463.117 207.5 463.117 203.5L524.617 195.5L522.617 221C520.284 245 517.617 265 514.617 281C511.951 296.667 508.451 309.833 504.117 320.5C497.117 337.833 484.284 350.5 465.617 358.5C447.284 366.167 421.951 370 389.617 370ZM564.617 370C545.951 370 527.617 366.333 509.617 359C491.951 351.333 477.617 339.333 466.617 323L502.617 271.5C511.617 276.5 522.617 280.167 535.617 282.5C548.617 284.5 561.117 285.5 573.117 285.5C578.784 285.5 582.784 289 585.117 296C587.451 302.667 588.617 312.667 588.617 326C588.617 336.667 586.117 346.667 581.117 356C576.117 365.333 570.617 370 564.617 370ZM464.117 488C448.117 473.667 432.117 459.333 416.117 445L458.117 395.5C466.117 402.167 481.951 416 505.617 437L464.117 488ZM530.617 488C514.617 473.667 498.617 459.333 482.617 445L524.617 395.5C532.617 402.167 548.451 416 572.117 437L530.617 488ZM726.922 370C707.922 370 690.922 367.833 675.922 363.5C661.255 359.167 648.922 352.5 638.922 343.5L670.922 269.5C678.589 274.167 687.255 278 696.922 281C706.922 284 721.089 285.5 739.422 285.5C747.089 285.5 754.255 285.167 760.922 284.5C767.589 283.5 773.755 282.167 779.422 280.5C781.089 270.833 782.755 257.333 784.422 240C785.755 229 786.922 218.167 787.922 207.5L833.422 205.5C831.755 227.5 829.755 246.833 827.422 263.5C825.089 280.167 821.922 295.5 817.922 309.5C813.922 323.5 808.755 335.167 802.422 344.5C796.755 352.833 786.422 359.167 771.422 363.5C756.755 367.833 741.922 370 726.922 370ZM564.422 370C560.089 370 556.422 366.167 553.422 358.5C550.422 350.833 548.922 340.667 548.922 328C548.922 315 551.255 304.667 555.922 297C560.255 289.333 565.922 285.5 572.922 285.5C589.589 285.5 603.422 284.667 614.422 283C625.755 281.333 634.255 278.167 639.922 273.5C643.922 270.167 647.589 263.833 650.922 254.5C654.255 244.833 658.255 231.5 662.922 214.5L705.922 212.5C700.922 238.5 695.755 259.833 690.422 276.5C685.422 292.833 680.255 305.833 674.922 315.5C669.589 324.833 663.422 332.833 656.422 339.5C644.755 350.5 631.755 358.333 617.422 363C603.089 367.667 585.422 370 564.422 370ZM873.922 370C852.922 370 834.589 366.333 818.922 359C803.255 351.667 789.089 340.667 776.422 326L806.922 264C816.589 271.333 826.589 276.833 836.922 280.5C847.589 283.833 859.089 285.5 871.422 285.5C877.755 285.5 883.922 285 889.922 284C896.255 283 901.755 281.333 906.422 279C904.089 266.333 901.255 253.333 897.922 240C894.589 226.667 890.922 212.833 886.922 198.5L940.422 176C944.422 190.667 947.255 205.5 948.922 220.5C950.922 235.167 951.922 251.333 951.922 269C951.922 297.667 944.922 321.667 930.922 341C916.922 360.333 897.922 370 873.922 370ZM811.422 97C803.089 89 794.589 81.1667 785.922 73.5L769.922 58L805.922 12.5C816.589 21.8333 830.255 34.5 846.922 50.5L811.422 97ZM782.922 169.5C757.589 146.833 742.922 133.667 738.922 130L777.422 84C787.089 92.3333 796.589 100.667 805.922 109L820.922 122.5L782.922 169.5ZM843.922 169.5C818.589 146.833 803.922 133.667 799.922 130L838.422 84C848.089 92.3333 857.589 100.667 866.922 109L881.922 122.5L843.922 169.5ZM1006.84 363.5L1002.34 31.5L1070.84 8.49999L1072.34 273.5C1072.34 292.167 1070.17 309.667 1065.84 326C1061.84 342.333 1056.34 356.5 1049.34 368.5L1006.84 363.5Z" fill="#141414"/>
<path d="M1345.2 417.8H1358V421H1345.2V417.8ZM1345.2 393.8H1358V397H1345.2V393.8ZM1345.2 400.2H1342V397H1345.2V400.2ZM1358 414.6H1361.2V417.8H1358V414.6ZM1361.2 397V400.2H1358V397H1361.2ZM1364.4 400.2V414.6H1361.2V400.2H1364.4ZM1342 414.6H1338.8V400.2H1342V414.6ZM1342 414.6H1345.2V417.8H1342V414.6ZM1387.49 393.8H1405.09V397H1390.69V405H1405.09V408.2H1390.69V417.8H1405.09V421H1387.49V393.8ZM1405.09 408.2H1408.29V417.8H1405.09V408.2ZM1405.09 397H1408.29V405H1405.09V397ZM1440.28 393.8V417.8H1437.08V393.8H1440.28ZM1429.08 417.8H1437.08V421H1429.08V417.8ZM1463.75 393.8H1482.95V397H1466.95V405H1481.35V408.2H1466.95V417.8H1482.95V421H1463.75V393.8ZM1503.5 400.2H1506.7V414.6H1503.5V400.2ZM1506.7 397H1509.9V400.2H1506.7V397ZM1509.9 393.8H1521.1V397H1509.9V393.8ZM1521.1 397H1524.3V400.2H1521.1V397ZM1524.3 400.2H1527.5V403.4H1524.3V400.2ZM1524.3 411.4H1527.5V414.6H1524.3V411.4ZM1521.1 414.6H1524.3V417.8H1521.1V414.6ZM1509.9 417.8H1521.1V421H1509.9V417.8ZM1506.7 414.6H1509.9V417.8H1506.7V414.6ZM1556.69 397H1547.09V393.8H1569.49V397H1559.89V421H1556.69V397ZM1605.49 397H1608.69V401.8H1605.49V397ZM1592.69 393.8H1605.49V397H1592.69V393.8ZM1592.69 403.4H1589.49V397H1592.69V403.4ZM1592.69 403.4H1599.09V406.6H1592.69V403.4ZM1599.09 406.6H1605.49V409.8H1599.09V406.6ZM1608.69 409.8V417.8H1605.49V409.8H1608.69ZM1605.49 421H1592.69V417.8H1605.49V421ZM1589.49 413H1592.69V417.8H1589.49V413Z" fill="#141414"/>
<path d="M438.48 69.8H454.48V73H441.68V84.2H454.48V87.4H441.68V97H438.48V69.8ZM457.68 73V84.2H454.48V73H457.68ZM485.844 93.8H498.644V97H485.844V93.8ZM485.844 69.8H498.644V73H485.844V69.8ZM485.844 76.2H482.644V73H485.844V76.2ZM498.644 90.6H501.844V93.8H498.644V90.6ZM501.844 73V76.2H498.644V73H501.844ZM505.044 76.2V90.6H501.844V76.2H505.044ZM482.644 90.6H479.444V76.2H482.644V90.6ZM482.644 90.6H485.844V93.8H482.644V90.6ZM535.064 92.2H538.264V97H535.064V92.2ZM531.864 84.2H535.064V92.2H531.864V84.2ZM528.664 76.2H531.864V84.2H528.664V76.2ZM525.464 69.8H528.664V76.2H525.464V69.8ZM538.264 84.2H541.464V92.2H538.264V84.2ZM541.464 76.2H544.664V84.2H541.464V76.2ZM544.664 69.8H547.864V76.2H544.664V69.8ZM551.064 76.2V84.2H547.864V76.2H551.064ZM554.264 84.2V92.2H551.064V84.2H554.264ZM557.464 92.2V97H554.264V92.2H557.464ZM557.464 84.2H560.664V92.2H557.464V84.2ZM563.864 76.2V84.2H560.664V76.2H563.864ZM563.864 69.8H567.064V76.2H563.864V69.8ZM588.528 69.8H607.728V73H591.728V81H606.128V84.2H591.728V93.8H607.728V97H588.528V69.8ZM630.563 69.8H646.563V73H633.763V82.6H646.563V85.8H643.363V89H640.163V85.8H633.763V97H630.563V69.8ZM649.763 73V82.6H646.563V73H649.763ZM646.563 93.8H649.763V97H646.563V93.8ZM643.363 89H646.563V93.8H643.363V89Z" fill="#141414"/>
</g>
<defs>
<clipPath id="clip0_74_482">
<rect width="1920" height="881" fill="white"/>
</clipPath>
</defs>
</svg>
