<svg width="1857" height="1043" viewBox="0 0 1857 1043" fill="none" xmlns="http://www.w3.org/2000/svg">
<path d="M897 844C865.333 844 838.333 839.833 816 831.5C794 822.833 777.167 810 765.5 793C754.167 776 748.5 755.167 748.5 730.5C748.5 714.167 750 698.167 753 682.5C756.333 666.833 760.167 653.167 764.5 641.5L808 651C805.667 660.667 803.833 669.333 802.5 677C801.5 684.333 801 693.167 801 703.5C801 717.167 804.333 728 811 736C817.667 744 828.833 749.833 844.5 753.5C860.5 757.167 882.5 759 910.5 759C939.5 759 966.5 757.833 991.5 755.5C1016.83 752.833 1040.67 749.167 1063 744.5C1060.67 729.167 1057.33 713.667 1053 698C1049 682.333 1044.17 667.167 1038.5 652.5L1106.5 621.5C1111.83 636.5 1116 652.833 1119 670.5C1122 687.833 1123.5 704 1123.5 719C1123.5 752 1114.33 777.667 1096 796C1077.67 814.333 1052.17 827 1019.5 834C986.833 840.667 946 844 897 844ZM902 665.5C886 651.167 870 636.833 854 622.5L896 573C904 579.333 919.833 593.167 943.5 614.5L902 665.5ZM968.5 665.5C952.5 651.167 936.5 636.833 920.5 622.5L962.5 573C970.5 579.333 986.333 593.167 1010 614.5L968.5 665.5ZM1194.02 964C1180.68 964 1168.68 962.833 1158.02 960.5C1147.68 958.167 1137.68 954.167 1128.02 948.5V885.5C1141.02 886.5 1152.18 887 1161.52 887C1183.52 887 1202.85 884 1219.52 878C1236.52 872 1250.02 863 1260.02 851C1270.02 839.333 1275.68 825 1277.02 808C1271.02 791.667 1263.85 776 1255.52 761C1247.52 745.667 1236.18 726 1221.52 702L1282.02 660.5C1299.02 691.833 1311.85 720 1320.52 745C1329.18 769.667 1333.52 793.5 1333.52 816.5C1333.52 842.833 1327.18 867.333 1314.52 890C1302.18 912.667 1285.35 930.667 1264.02 944C1242.68 957.333 1219.35 964 1194.02 964ZM1619.48 844C1603.81 844 1590.98 842.167 1580.98 838.5C1570.98 835.167 1562.64 830 1555.98 823C1549.64 815.667 1543.48 806 1537.48 794C1526.14 769.333 1514.81 744.667 1503.48 720C1485.81 678.333 1472.31 645.333 1462.98 621L1530.98 587.5C1539.98 615.833 1548.98 644.333 1557.98 673C1563.64 690.333 1568.81 706 1573.48 720C1578.14 733.667 1581.31 742.333 1582.98 746C1585.64 751.333 1590.14 755 1596.48 757C1603.14 758.667 1613.64 759.5 1627.98 759.5C1632.98 759.5 1636.81 763 1639.48 770C1642.14 777 1643.48 787.833 1643.48 802.5C1643.48 813.167 1640.98 822.833 1635.98 831.5C1631.31 839.833 1625.81 844 1619.48 844ZM1442.98 844C1419.31 844 1401.31 838.167 1388.98 826.5C1376.98 814.5 1370.98 797.667 1370.98 776C1370.98 763.667 1372.14 751.167 1374.48 738.5L1403.48 736C1404.14 742.333 1405.64 747.333 1407.98 751C1410.64 754.333 1414.64 756.833 1419.98 758.5C1425.31 760.167 1432.31 761 1440.98 761C1456.98 761 1475.14 759.333 1495.48 756C1515.81 752.667 1533.81 748 1549.48 742L1559.48 791.5C1544.81 807.833 1527.64 820.667 1507.98 830C1488.64 839.333 1466.98 844 1442.98 844ZM1619.4 844C1614.07 844 1610.24 840.667 1607.9 834C1605.24 827 1603.9 816.333 1603.9 802C1603.9 791 1604.9 782.5 1606.9 776.5C1608.57 770.167 1611.24 765.833 1614.9 763.5C1618.24 760.833 1622.57 759.5 1627.9 759.5H1646.9C1674.9 759.5 1695.07 759.167 1707.4 758.5C1724.74 757.5 1740.4 756.167 1754.4 754.5C1768.4 752.833 1782.07 750.333 1795.4 747C1795.07 739 1794.9 733 1794.9 729C1794.9 725 1794.74 719.167 1794.4 711.5L1789.9 705C1789.24 692.667 1786.07 682.333 1780.4 674C1775.07 665.333 1768.24 658.833 1759.9 654.5C1751.9 650.167 1743.24 648 1733.9 648C1722.57 648 1713.57 650.5 1706.9 655.5C1700.24 660.5 1696.9 666.5 1696.9 673.5C1696.9 679.833 1699.74 684.333 1705.4 687C1711.07 689.667 1721.4 691 1736.4 691C1747.07 691 1757.24 690 1766.9 688C1776.9 686 1790.4 682.667 1807.4 678L1810.4 717.5C1797.4 725.833 1784.07 731.833 1770.4 735.5C1756.74 738.833 1742.07 740.5 1726.4 740.5C1708.74 740.5 1694.57 738 1683.9 733C1673.57 728 1666.07 720.833 1661.4 711.5C1657.07 701.833 1654.9 689.667 1654.9 675C1654.9 657.333 1658.24 640.667 1664.9 625C1671.9 609 1681.74 596.167 1694.4 586.5C1707.4 576.5 1722.4 571.5 1739.4 571.5C1757.4 571.5 1773.74 577.333 1788.4 589C1803.07 600.333 1814.74 616.833 1823.4 638.5C1832.07 659.833 1836.4 685 1836.4 714C1836.4 739.667 1833.07 760.5 1826.4 776.5C1819.74 792.167 1810.24 804.333 1797.9 813C1787.9 820 1774.57 825.833 1757.9 830.5C1741.57 834.833 1723.24 838.167 1702.9 840.5C1684.24 842.833 1656.4 844 1619.4 844ZM1708.9 548.5C1692.9 534.167 1676.9 519.833 1660.9 505.5L1702.9 456C1710.9 462.333 1726.74 476.167 1750.4 497.5L1708.9 548.5ZM1775.4 548.5C1759.4 534.167 1743.4 519.833 1727.4 505.5L1769.4 456C1777.4 462.333 1793.24 476.167 1816.9 497.5L1775.4 548.5Z" fill="#141414"/>
<path d="M24 419.5C46.6667 410.5 72.8333 401.5 102.5 392.5L104.5 425.5C80.1667 421.5 62 413 50 400C38 387 32 370.167 32 349.5C32 334.167 35.3333 320.333 42 308C49 295.667 58.8333 286 71.5 279C84.1667 271.667 98.8333 268 115.5 268C126.5 268 137.167 269.667 147.5 273C158.167 276 167.333 280.333 175 286L169 339C161.667 337 154.667 335.5 148 334.5C141.333 333.167 133.667 332.5 125 332.5C109.333 332.5 97.5 334.667 89.5 339C81.8333 343 78 349.167 78 357.5C78 365.167 81.5 371.333 88.5 376C95.5 380.333 106.167 382.5 120.5 382.5C129.5 382.5 139.333 381.667 150 380C161 378 174.333 375.167 190 371.5L198.5 435C141.5 447 89.1667 460.167 41.5 474.5L24 419.5ZM361.656 461C338.99 461 320.49 457.667 306.156 451C292.156 444 281.656 433.167 274.656 418.5C267.656 403.5 263.656 384 262.656 360L252.656 122.5L321.156 99.5L324.156 339C324.49 348.667 325.99 356.167 328.656 361.5C331.323 366.833 335.823 370.667 342.156 373C348.823 375.333 358.156 376.5 370.156 376.5C376.823 376.5 381.823 381 385.156 390C388.49 399 390.156 409.833 390.156 422.5C390.156 434.167 387.323 443.5 381.656 450.5C376.323 457.5 369.656 461 361.656 461ZM361.617 461C356.617 461 352.784 457.667 350.117 451C347.451 444 346.117 433.667 346.117 420C346.117 412.333 347.284 405.167 349.617 398.5C351.617 391.833 354.451 386.5 358.117 382.5C361.784 378.5 365.784 376.5 370.117 376.5C383.117 376.5 394.451 376.167 404.117 375.5C413.784 374.833 423.451 373.833 433.117 372.5C433.784 350.5 434.284 328.667 434.617 307C434.951 302.667 435.117 298.5 435.117 294.5L496.617 286.5L494.617 312C492.284 336 489.617 356 486.617 372C483.951 387.667 480.451 400.833 476.117 411.5C469.117 428.833 456.284 441.5 437.617 449.5C419.284 457.167 393.951 461 361.617 461ZM536.617 461C517.951 461 499.617 457.333 481.617 450C463.951 442.333 449.617 430.333 438.617 414L474.617 362.5C483.617 367.5 494.617 371.167 507.617 373.5C520.617 375.5 533.117 376.5 545.117 376.5C550.784 376.5 554.784 380 557.117 387C559.451 393.667 560.617 403.667 560.617 417C560.617 427.667 558.117 437.667 553.117 447C548.117 456.333 542.617 461 536.617 461ZM436.117 579C420.117 564.667 404.117 550.333 388.117 536L430.117 486.5C438.117 493.167 453.951 507 477.617 528L436.117 579ZM502.617 579C486.617 564.667 470.617 550.333 454.617 536L496.617 486.5C504.617 493.167 520.451 507 544.117 528L502.617 579ZM698.922 461C679.922 461 662.922 458.833 647.922 454.5C633.255 450.167 620.922 443.5 610.922 434.5L642.922 360.5C650.589 365.167 659.255 369 668.922 372C678.922 375 693.089 376.5 711.422 376.5C719.089 376.5 726.255 376.167 732.922 375.5C739.589 374.5 745.755 373.167 751.422 371.5C753.089 361.833 754.755 348.333 756.422 331C757.755 320 758.922 309.167 759.922 298.5L805.422 296.5C803.755 318.5 801.755 337.833 799.422 354.5C797.089 371.167 793.922 386.5 789.922 400.5C785.922 414.5 780.755 426.167 774.422 435.5C768.755 443.833 758.422 450.167 743.422 454.5C728.755 458.833 713.922 461 698.922 461ZM536.422 461C532.089 461 528.422 457.167 525.422 449.5C522.422 441.833 520.922 431.667 520.922 419C520.922 406 523.255 395.667 527.922 388C532.255 380.333 537.922 376.5 544.922 376.5C561.589 376.5 575.422 375.667 586.422 374C597.755 372.333 606.255 369.167 611.922 364.5C615.922 361.167 619.589 354.833 622.922 345.5C626.255 335.833 630.255 322.5 634.922 305.5L677.922 303.5C672.922 329.5 667.755 350.833 662.422 367.5C657.422 383.833 652.255 396.833 646.922 406.5C641.589 415.833 635.422 423.833 628.422 430.5C616.755 441.5 603.755 449.333 589.422 454C575.089 458.667 557.422 461 536.422 461ZM845.922 461C824.922 461 806.589 457.333 790.922 450C775.255 442.667 761.089 431.667 748.422 417L778.922 355C788.589 362.333 798.589 367.833 808.922 371.5C819.589 374.833 831.089 376.5 843.422 376.5C849.755 376.5 855.922 376 861.922 375C868.255 374 873.755 372.333 878.422 370C876.089 357.333 873.255 344.333 869.922 331C866.589 317.667 862.922 303.833 858.922 289.5L912.422 267C916.422 281.667 919.255 296.5 920.922 311.5C922.922 326.167 923.922 342.333 923.922 360C923.922 388.667 916.922 412.667 902.922 432C888.922 451.333 869.922 461 845.922 461ZM783.422 188C775.089 180 766.589 172.167 757.922 164.5L741.922 149L777.922 103.5C788.589 112.833 802.255 125.5 818.922 141.5L783.422 188ZM754.922 260.5C729.589 237.833 714.922 224.667 710.922 221L749.422 175C759.089 183.333 768.589 191.667 777.922 200L792.922 213.5L754.922 260.5ZM815.922 260.5C790.589 237.833 775.922 224.667 771.922 221L810.422 175C820.089 183.333 829.589 191.667 838.922 200L853.922 213.5L815.922 260.5ZM978.836 454.5L974.336 122.5L1042.84 99.5L1044.34 364.5C1044.34 383.167 1042.17 400.667 1037.84 417C1033.84 433.333 1028.34 447.5 1021.34 459.5L978.836 454.5Z" fill="#141414"/>
<path d="M1317.2 508.8H1330V512H1317.2V508.8ZM1317.2 484.8H1330V488H1317.2V484.8ZM1317.2 491.2H1314V488H1317.2V491.2ZM1330 505.6H1333.2V508.8H1330V505.6ZM1333.2 488V491.2H1330V488H1333.2ZM1336.4 491.2V505.6H1333.2V491.2H1336.4ZM1314 505.6H1310.8V491.2H1314V505.6ZM1314 505.6H1317.2V508.8H1314V505.6ZM1359.49 484.8H1377.09V488H1362.69V496H1377.09V499.2H1362.69V508.8H1377.09V512H1359.49V484.8ZM1377.09 499.2H1380.29V508.8H1377.09V499.2ZM1377.09 488H1380.29V496H1377.09V488ZM1412.28 484.8V508.8H1409.08V484.8H1412.28ZM1401.08 508.8H1409.08V512H1401.08V508.8ZM1435.75 484.8H1454.95V488H1438.95V496H1453.35V499.2H1438.95V508.8H1454.95V512H1435.75V484.8ZM1475.5 491.2H1478.7V505.6H1475.5V491.2ZM1478.7 488H1481.9V491.2H1478.7V488ZM1481.9 484.8H1493.1V488H1481.9V484.8ZM1493.1 488H1496.3V491.2H1493.1V488ZM1496.3 491.2H1499.5V494.4H1496.3V491.2ZM1496.3 502.4H1499.5V505.6H1496.3V502.4ZM1493.1 505.6H1496.3V508.8H1493.1V505.6ZM1481.9 508.8H1493.1V512H1481.9V508.8ZM1478.7 505.6H1481.9V508.8H1478.7V505.6ZM1528.69 488H1519.09V484.8H1541.49V488H1531.89V512H1528.69V488ZM1577.49 488H1580.69V492.8H1577.49V488ZM1564.69 484.8H1577.49V488H1564.69V484.8ZM1564.69 494.4H1561.49V488H1564.69V494.4ZM1564.69 494.4H1571.09V497.6H1564.69V494.4ZM1571.09 497.6H1577.49V500.8H1571.09V497.6ZM1580.69 500.8V508.8H1577.49V500.8H1580.69ZM1577.49 512H1564.69V508.8H1577.49V512ZM1561.49 504H1564.69V508.8H1561.49V504Z" fill="#141414"/>
<path d="M410.48 160.8H426.48V164H413.68V175.2H426.48V178.4H413.68V188H410.48V160.8ZM429.68 164V175.2H426.48V164H429.68ZM457.844 184.8H470.644V188H457.844V184.8ZM457.844 160.8H470.644V164H457.844V160.8ZM457.844 167.2H454.644V164H457.844V167.2ZM470.644 181.6H473.844V184.8H470.644V181.6ZM473.844 164V167.2H470.644V164H473.844ZM477.044 167.2V181.6H473.844V167.2H477.044ZM454.644 181.6H451.444V167.2H454.644V181.6ZM454.644 181.6H457.844V184.8H454.644V181.6ZM507.064 183.2H510.264V188H507.064V183.2ZM503.864 175.2H507.064V183.2H503.864V175.2ZM500.664 167.2H503.864V175.2H500.664V167.2ZM497.464 160.8H500.664V167.2H497.464V160.8ZM510.264 175.2H513.464V183.2H510.264V175.2ZM513.464 167.2H516.664V175.2H513.464V167.2ZM516.664 160.8H519.864V167.2H516.664V160.8ZM523.064 167.2V175.2H519.864V167.2H523.064ZM526.264 175.2V183.2H523.064V175.2H526.264ZM529.464 183.2V188H526.264V183.2H529.464ZM529.464 175.2H532.664V183.2H529.464V175.2ZM535.864 167.2V175.2H532.664V167.2H535.864ZM535.864 160.8H539.064V167.2H535.864V160.8ZM560.528 160.8H579.728V164H563.728V172H578.128V175.2H563.728V184.8H579.728V188H560.528V160.8ZM602.563 160.8H618.563V164H605.763V173.6H618.563V176.8H615.363V180H612.163V176.8H605.763V188H602.563V160.8ZM621.763 164V173.6H618.563V164H621.763ZM618.563 184.8H621.763V188H618.563V184.8ZM615.363 180H618.563V184.8H615.363V180Z" fill="#141414"/>
</svg>
