<svg width="1920" height="90" viewBox="0 0 1920 90" fill="none" xmlns="http://www.w3.org/2000/svg">
<path d="M1920 0H0V90H1920V0Z" fill="#CFC4B2"/>
<path d="M17.52 62.08H25.2V64H17.52V62.08ZM17.52 47.68H25.2V49.6H17.52V47.68ZM17.52 51.52H15.6V49.6H17.52V51.52ZM25.2 60.16H27.12V62.08H25.2V60.16ZM27.12 49.6V51.52H25.2V49.6H27.12ZM29.04 51.52V60.16H27.12V51.52H29.04ZM15.6 60.16H13.68V51.52H15.6V60.16ZM15.6 60.16H17.52V62.08H15.6V60.16ZM42.8946 47.68H53.4546V49.6H44.8146V54.4H53.4546V56.32H44.8146V62.08H53.4546V64H42.8946V47.68ZM53.4546 56.32H55.3746V62.08H53.4546V56.32ZM53.4546 49.6H55.3746V54.4H53.4546V49.6ZM69.2167 47.68H80.7368V49.6H71.1368V54.4H79.7768V56.32H71.1368V62.08H80.7368V64H69.2167V47.68ZM99.7894 47.68V62.08H97.8694V47.68H99.7894ZM93.0694 62.08H97.8694V64H93.0694V62.08ZM113.461 51.52H115.381V60.16H113.461V51.52ZM115.381 49.6H117.301V51.52H115.381V49.6ZM117.301 47.68H124.021V49.6H117.301V47.68ZM124.021 49.6H125.941V51.52H124.021V49.6ZM125.941 51.52H127.861V53.44H125.941V51.52ZM125.941 58.24H127.861V60.16H125.941V58.24ZM124.021 60.16H125.941V62.08H124.021V60.16ZM117.301 62.08H124.021V64H117.301V62.08ZM115.381 60.16H117.301V62.08H115.381V60.16ZM145.374 49.6H139.614V47.68H153.054V49.6H147.294V64H145.374V49.6ZM174.656 49.6H176.576V52.48H174.656V49.6ZM166.976 47.68H174.656V49.6H166.976V47.68ZM166.976 53.44H165.056V49.6H166.976V53.44ZM166.976 53.44H170.816V55.36H166.976V53.44ZM170.816 55.36H174.656V57.28H170.816V55.36ZM176.576 57.28V62.08H174.656V57.28H176.576ZM174.656 64H166.976V62.08H174.656V64ZM165.056 59.2H166.976V62.08H165.056V59.2ZM216.404 62.08H218.324V64H216.404V62.08ZM212.564 58.24H214.484V60.16H216.404V62.08H212.564V58.24ZM210.644 56.32H208.724V54.4H212.564V58.24H210.644V56.32ZM208.724 58.24H206.804V56.32H208.724V58.24ZM216.404 55.36H218.324V60.16H216.404V55.36ZM206.804 62.08H212.564V64H206.804V62.08ZM206.804 58.24V62.08H204.884V58.24H206.804ZM206.804 49.6H208.724V54.4H206.804V49.6ZM208.724 47.68H214.484V49.6H208.724V47.68ZM216.404 49.6V52.48H214.484V49.6H216.404ZM214.484 54.4H212.564V52.48H214.484V54.4ZM247.193 47.68H256.793V49.6H249.113V56.32H256.793V58.24H249.113V64H247.193V47.68ZM258.713 49.6V56.32H256.793V49.6H258.713ZM275.611 62.08H283.291V64H275.611V62.08ZM275.611 47.68H283.291V49.6H275.611V47.68ZM275.611 51.52H273.691V49.6H275.611V51.52ZM283.291 60.16H285.211V62.08H283.291V60.16ZM285.211 49.6V51.52H283.291V49.6H285.211ZM287.131 51.52V60.16H285.211V51.52H287.131ZM273.691 60.16H271.771V51.52H273.691V60.16ZM273.691 60.16H275.611V62.08H273.691V60.16ZM305.143 61.12H307.063V64H305.143V61.12ZM303.223 56.32H305.143V61.12H303.223V56.32ZM301.303 51.52H303.223V56.32H301.303V51.52ZM299.383 47.68H301.303V51.52H299.383V47.68ZM307.063 56.32H308.983V61.12H307.063V56.32ZM308.983 51.52H310.903V56.32H308.983V51.52ZM310.903 47.68H312.823V51.52H310.903V47.68ZM314.743 51.52V56.32H312.823V51.52H314.743ZM316.663 56.32V61.12H314.743V56.32H316.663ZM318.583 61.12V64H316.663V61.12H318.583ZM318.583 56.32H320.503V61.12H318.583V56.32ZM322.423 51.52V56.32H320.503V51.52H322.423ZM322.423 47.68H324.343V51.52H322.423V47.68ZM337.222 47.68H348.742V49.6H339.142V54.4H347.782V56.32H339.142V62.08H348.742V64H337.222V47.68ZM362.442 47.68H372.042V49.6H364.362V55.36H372.042V57.28H370.122V59.2H368.202V57.28H364.362V64H362.442V47.68ZM373.962 49.6V55.36H372.042V49.6H373.962ZM372.042 62.08H373.962V64H372.042V62.08ZM370.122 59.2H372.042V62.08H370.122V59.2Z" fill="#141414"/>
<path d="M599.52 62.08H607.2V64H599.52V62.08ZM599.52 47.68H607.2V49.6H599.52V47.68ZM599.52 51.52H597.6V49.6H599.52V51.52ZM607.2 60.16H609.12V62.08H607.2V60.16ZM609.12 49.6V51.52H607.2V49.6H609.12ZM611.04 51.52V60.16H609.12V51.52H611.04ZM597.6 60.16H595.68V51.52H597.6V60.16ZM597.6 60.16H599.52V62.08H597.6V60.16ZM624.895 47.68H635.455V49.6H626.815V54.4H635.455V56.32H626.815V62.08H635.455V64H624.895V47.68ZM635.455 56.32H637.375V62.08H635.455V56.32ZM635.455 49.6H637.375V54.4H635.455V49.6ZM651.217 47.68H662.737V49.6H653.137V54.4H661.777V56.32H653.137V62.08H662.737V64H651.217V47.68ZM681.789 47.68V62.08H679.869V47.68H681.789ZM675.069 62.08H679.869V64H675.069V62.08ZM695.461 51.52H697.381V60.16H695.461V51.52ZM697.381 49.6H699.301V51.52H697.381V49.6ZM699.301 47.68H706.021V49.6H699.301V47.68ZM706.021 49.6H707.941V51.52H706.021V49.6ZM707.941 51.52H709.861V53.44H707.941V51.52ZM707.941 58.24H709.861V60.16H707.941V58.24ZM706.021 60.16H707.941V62.08H706.021V60.16ZM699.301 62.08H706.021V64H699.301V62.08ZM697.381 60.16H699.301V62.08H697.381V60.16ZM727.374 49.6H721.614V47.68H735.054V49.6H729.294V64H727.374V49.6ZM756.656 49.6H758.576V52.48H756.656V49.6ZM748.976 47.68H756.656V49.6H748.976V47.68ZM748.976 53.44H747.056V49.6H748.976V53.44ZM748.976 53.44H752.816V55.36H748.976V53.44ZM752.816 55.36H756.656V57.28H752.816V55.36ZM758.576 57.28V62.08H756.656V57.28H758.576ZM756.656 64H748.976V62.08H756.656V64ZM747.056 59.2H748.976V62.08H747.056V59.2ZM798.404 62.08H800.324V64H798.404V62.08ZM794.564 58.24H796.484V60.16H798.404V62.08H794.564V58.24ZM792.644 56.32H790.724V54.4H794.564V58.24H792.644V56.32ZM790.724 58.24H788.804V56.32H790.724V58.24ZM798.404 55.36H800.324V60.16H798.404V55.36ZM788.804 62.08H794.564V64H788.804V62.08ZM788.804 58.24V62.08H786.884V58.24H788.804ZM788.804 49.6H790.724V54.4H788.804V49.6ZM790.724 47.68H796.484V49.6H790.724V47.68ZM798.404 49.6V52.48H796.484V49.6H798.404ZM796.484 54.4H794.564V52.48H796.484V54.4ZM829.193 47.68H838.793V49.6H831.113V56.32H838.793V58.24H831.113V64H829.193V47.68ZM840.713 49.6V56.32H838.793V49.6H840.713ZM857.611 62.08H865.291V64H857.611V62.08ZM857.611 47.68H865.291V49.6H857.611V47.68ZM857.611 51.52H855.691V49.6H857.611V51.52ZM865.291 60.16H867.211V62.08H865.291V60.16ZM867.211 49.6V51.52H865.291V49.6H867.211ZM869.131 51.52V60.16H867.211V51.52H869.131ZM855.691 60.16H853.771V51.52H855.691V60.16ZM855.691 60.16H857.611V62.08H855.691V60.16ZM887.143 61.12H889.063V64H887.143V61.12ZM885.223 56.32H887.143V61.12H885.223V56.32ZM883.303 51.52H885.223V56.32H883.303V51.52ZM881.383 47.68H883.303V51.52H881.383V47.68ZM889.063 56.32H890.983V61.12H889.063V56.32ZM890.983 51.52H892.903V56.32H890.983V51.52ZM892.903 47.68H894.823V51.52H892.903V47.68ZM896.743 51.52V56.32H894.823V51.52H896.743ZM898.663 56.32V61.12H896.743V56.32H898.663ZM900.583 61.12V64H898.663V61.12H900.583ZM900.583 56.32H902.503V61.12H900.583V56.32ZM904.423 51.52V56.32H902.503V51.52H904.423ZM904.423 47.68H906.343V51.52H904.423V47.68ZM919.222 47.68H930.742V49.6H921.142V54.4H929.782V56.32H921.142V62.08H930.742V64H919.222V47.68ZM944.442 47.68H954.042V49.6H946.362V55.36H954.042V57.28H952.122V59.2H950.202V57.28H946.362V64H944.442V47.68ZM955.962 49.6V55.36H954.042V49.6H955.962ZM954.042 62.08H955.962V64H954.042V62.08ZM952.122 59.2H954.042V62.08H952.122V59.2Z" fill="#141414"/>
<path d="M1203.52 62.08H1211.2V64H1203.52V62.08ZM1203.52 47.68H1211.2V49.6H1203.52V47.68ZM1203.52 51.52H1201.6V49.6H1203.52V51.52ZM1211.2 60.16H1213.12V62.08H1211.2V60.16ZM1213.12 49.6V51.52H1211.2V49.6H1213.12ZM1215.04 51.52V60.16H1213.12V51.52H1215.04ZM1201.6 60.16H1199.68V51.52H1201.6V60.16ZM1201.6 60.16H1203.52V62.08H1201.6V60.16ZM1228.89 47.68H1239.45V49.6H1230.81V54.4H1239.45V56.32H1230.81V62.08H1239.45V64H1228.89V47.68ZM1239.45 56.32H1241.37V62.08H1239.45V56.32ZM1239.45 49.6H1241.37V54.4H1239.45V49.6ZM1255.22 47.68H1266.74V49.6H1257.14V54.4H1265.78V56.32H1257.14V62.08H1266.74V64H1255.22V47.68ZM1285.79 47.68V62.08H1283.87V47.68H1285.79ZM1279.07 62.08H1283.87V64H1279.07V62.08ZM1299.46 51.52H1301.38V60.16H1299.46V51.52ZM1301.38 49.6H1303.3V51.52H1301.38V49.6ZM1303.3 47.68H1310.02V49.6H1303.3V47.68ZM1310.02 49.6H1311.94V51.52H1310.02V49.6ZM1311.94 51.52H1313.86V53.44H1311.94V51.52ZM1311.94 58.24H1313.86V60.16H1311.94V58.24ZM1310.02 60.16H1311.94V62.08H1310.02V60.16ZM1303.3 62.08H1310.02V64H1303.3V62.08ZM1301.38 60.16H1303.3V62.08H1301.38V60.16ZM1331.37 49.6H1325.61V47.68H1339.05V49.6H1333.29V64H1331.37V49.6ZM1360.66 49.6H1362.58V52.48H1360.66V49.6ZM1352.98 47.68H1360.66V49.6H1352.98V47.68ZM1352.98 53.44H1351.06V49.6H1352.98V53.44ZM1352.98 53.44H1356.82V55.36H1352.98V53.44ZM1356.82 55.36H1360.66V57.28H1356.82V55.36ZM1362.58 57.28V62.08H1360.66V57.28H1362.58ZM1360.66 64H1352.98V62.08H1360.66V64ZM1351.06 59.2H1352.98V62.08H1351.06V59.2ZM1402.4 62.08H1404.32V64H1402.4V62.08ZM1398.56 58.24H1400.48V60.16H1402.4V62.08H1398.56V58.24ZM1396.64 56.32H1394.72V54.4H1398.56V58.24H1396.64V56.32ZM1394.72 58.24H1392.8V56.32H1394.72V58.24ZM1402.4 55.36H1404.32V60.16H1402.4V55.36ZM1392.8 62.08H1398.56V64H1392.8V62.08ZM1392.8 58.24V62.08H1390.88V58.24H1392.8ZM1392.8 49.6H1394.72V54.4H1392.8V49.6ZM1394.72 47.68H1400.48V49.6H1394.72V47.68ZM1402.4 49.6V52.48H1400.48V49.6H1402.4ZM1400.48 54.4H1398.56V52.48H1400.48V54.4ZM1433.19 47.68H1442.79V49.6H1435.11V56.32H1442.79V58.24H1435.11V64H1433.19V47.68ZM1444.71 49.6V56.32H1442.79V49.6H1444.71ZM1461.61 62.08H1469.29V64H1461.61V62.08ZM1461.61 47.68H1469.29V49.6H1461.61V47.68ZM1461.61 51.52H1459.69V49.6H1461.61V51.52ZM1469.29 60.16H1471.21V62.08H1469.29V60.16ZM1471.21 49.6V51.52H1469.29V49.6H1471.21ZM1473.13 51.52V60.16H1471.21V51.52H1473.13ZM1459.69 60.16H1457.77V51.52H1459.69V60.16ZM1459.69 60.16H1461.61V62.08H1459.69V60.16ZM1491.14 61.12H1493.06V64H1491.14V61.12ZM1489.22 56.32H1491.14V61.12H1489.22V56.32ZM1487.3 51.52H1489.22V56.32H1487.3V51.52ZM1485.38 47.68H1487.3V51.52H1485.38V47.68ZM1493.06 56.32H1494.98V61.12H1493.06V56.32ZM1494.98 51.52H1496.9V56.32H1494.98V51.52ZM1496.9 47.68H1498.82V51.52H1496.9V47.68ZM1500.74 51.52V56.32H1498.82V51.52H1500.74ZM1502.66 56.32V61.12H1500.74V56.32H1502.66ZM1504.58 61.12V64H1502.66V61.12H1504.58ZM1504.58 56.32H1506.5V61.12H1504.58V56.32ZM1508.42 51.52V56.32H1506.5V51.52H1508.42ZM1508.42 47.68H1510.34V51.52H1508.42V47.68ZM1523.22 47.68H1534.74V49.6H1525.14V54.4H1533.78V56.32H1525.14V62.08H1534.74V64H1523.22V47.68ZM1548.44 47.68H1558.04V49.6H1550.36V55.36H1558.04V57.28H1556.12V59.2H1554.2V57.28H1550.36V64H1548.44V47.68ZM1559.96 49.6V55.36H1558.04V49.6H1559.96ZM1558.04 62.08H1559.96V64H1558.04V62.08ZM1556.12 59.2H1558.04V62.08H1556.12V59.2Z" fill="#141414"/>
<path d="M395.879 54.8787C394.707 56.0503 394.707 57.9497 395.879 59.1213L414.971 78.2132C416.142 79.3848 418.042 79.3848 419.213 78.2132C420.385 77.0416 420.385 75.1421 419.213 73.9706L402.243 57L419.213 40.0294C420.385 38.8579 420.385 36.9584 419.213 35.7868C418.042 34.6152 416.142 34.6152 414.971 35.7868L395.879 54.8787ZM548 54H398V60H548V54Z" fill="#141414"/>
<path d="M999.879 44.8787C998.707 46.0503 998.707 47.9497 999.879 49.1213L1018.97 68.2132C1020.14 69.3848 1022.04 69.3848 1023.21 68.2132C1024.38 67.0416 1024.38 65.1421 1023.21 63.9706L1006.24 47L1023.21 30.0294C1024.38 28.8579 1024.38 26.9584 1023.21 25.7868C1022.04 24.6152 1020.14 24.6152 1018.97 25.7868L999.879 44.8787ZM1152 44H1002V50H1152V44Z" fill="#141414"/>
<path d="M1620.88 44.8787C1619.71 46.0503 1619.71 47.9497 1620.88 49.1213L1639.97 68.2132C1641.14 69.3848 1643.04 69.3848 1644.21 68.2132C1645.38 67.0416 1645.38 65.1421 1644.21 63.9706L1627.24 47L1644.21 30.0294C1645.38 28.8579 1645.38 26.9584 1644.21 25.7868C1643.04 24.6152 1641.14 24.6152 1639.97 25.7868L1620.88 44.8787ZM1773 44H1623V50H1773V44Z" fill="#141414"/>
</svg>
