<svg width="830" height="384" viewBox="0 0 830 384" fill="none" xmlns="http://www.w3.org/2000/svg">
<path d="M512.2 216.9C497.4 216.9 486 212.9 478 204.9C470 196.9 466 186.4 466 173.4C466 162 469.2 150 475.6 137.4C482.2 124.8 490.1 112.4 499.3 100.2L516.7 111C509.9 120.2 504.9 128 501.7 134.4C498.5 140.6 496.9 146.4 496.9 151.8C496.9 157 498.8 160.9 502.6 163.5C506.4 165.9 512.2 167.1 520 167.1C526.4 167.1 533 166.5 539.8 165.3C546.6 163.9 554.6 161.5 563.8 158.1L561.7 181.2C558.7 169.4 554 159.1 547.6 150.3C541.4 141.5 533.4 133.6 523.6 126.6C514 119.4 501.9 112.3 487.3 105.3L509.2 62.7C531.6 74.1 549 88.2 561.4 105C574 121.8 580.3 140.6 580.3 161.4C580.3 179.4 574.1 193.2 561.7 202.8C549.5 212.2 533 216.9 512.2 216.9ZM675.967 216.9C662.367 216.9 651.267 214.9 642.667 210.9C634.267 206.7 627.967 200.2 623.767 191.4C619.567 182.4 617.167 170.7 616.567 156.3L610.567 13.8L651.667 0L653.467 143.7C653.667 149.5 654.567 154 656.167 157.2C657.767 160.4 660.467 162.7 664.267 164.1C668.267 165.5 673.867 166.2 681.067 166.2C685.067 166.2 688.067 168.9 690.067 174.3C692.067 179.7 693.067 186.2 693.067 193.8C693.067 200.8 691.367 206.4 687.967 210.6C684.767 214.8 680.767 216.9 675.967 216.9ZM778.844 218.1C765.644 218.1 753.444 215.1 742.244 209.1C731.244 203.1 722.844 195 717.044 184.8L736.244 151.2C742.844 158.8 749.744 164 756.944 166.8C764.144 169.6 772.344 171 781.544 171C785.344 171 788.644 170.8 791.444 170.4C794.444 170 797.444 169.3 800.444 168.3C799.244 162.7 797.244 157.1 794.444 151.5C791.644 145.9 788.244 141.3 784.244 137.7C780.244 133.9 776.044 132 771.644 132C767.644 132 763.744 133.7 759.944 137.1C756.344 140.5 751.844 146 746.444 153.6C744.044 157.2 741.644 160.8 739.244 164.4C736.844 168.2 734.344 172 731.744 175.8C726.144 184.6 721.844 191 718.844 195C715.844 199 712.344 202.6 708.344 205.8C703.744 209.6 699.044 212.4 694.244 214.2C689.644 216 683.544 216.9 675.944 216.9C672.544 216.9 670.144 214.8 668.744 210.6C667.344 206.2 666.644 200 666.644 192C666.644 184.4 667.944 178.2 670.544 173.4C673.144 168.6 676.644 166.2 681.044 166.2C686.044 166.2 690.544 165.6 694.544 164.4C698.544 163 702.244 161 705.644 158.4C708.844 156.2 711.944 153.4 714.944 150C717.944 146.4 721.944 141.3 726.944 134.7C730.944 129.7 734.844 124.8 738.644 120C747.044 110 754.644 102.5 761.444 97.5C768.244 92.5 774.544 90 780.344 90C788.344 90 796.144 93.1 803.744 99.3C811.344 105.3 817.544 113.9 822.344 125.1C827.144 136.1 829.544 148.8 829.544 163.2C829.544 180.8 825.544 194.4 817.544 204C809.544 213.4 796.644 218.1 778.844 218.1Z" fill="#CFC4B2"/>
<path d="M89.1 383.263C70.1 383.263 53.9 380.763 40.5 375.763C27.3 370.563 17.2 362.863 10.2 352.663C3.4 342.463 0 329.963 0 315.163C0 305.363 0.9 295.763 2.7 286.363C4.7 276.963 7 268.763 9.6 261.763L35.7 267.463C34.3 273.263 33.2 278.463 32.4 283.063C31.8 287.463 31.5 292.763 31.5 298.963C31.5 307.163 33.5 313.663 37.5 318.463C41.5 323.263 48.2 326.763 57.6 328.963C67.2 331.163 80.4 332.263 97.2 332.263C119 332.263 137.3 331.363 152.1 329.563C167.1 327.763 180.7 325.163 192.9 321.763C192.7 314.963 192.5 307.963 192.3 300.763C192.3 293.363 192.3 286.663 192.3 280.663V277.963L229.5 272.863C228.7 287.663 228 298.663 227.4 305.863C227 312.863 226.4 323.563 225.6 337.963C211.4 353.763 192.3 365.263 168.3 372.463C144.3 379.663 117.9 383.263 89.1 383.263ZM256.5 383.263C240.3 383.263 227.1 380.763 216.9 375.763C206.7 370.563 199.5 361.363 195.3 348.163L216.6 323.863C222.4 326.863 229.5 329.063 237.9 330.463C246.3 331.863 254.2 332.563 261.6 332.563C264.4 332.563 266.6 334.763 268.2 339.163C270 343.563 270.9 348.963 270.9 355.363C270.9 361.163 270.2 366.163 268.8 370.363C267.4 374.563 265.6 377.763 263.4 379.963C261.2 382.163 258.9 383.263 256.5 383.263ZM96.9 276.163C87.3 267.563 77.7 258.963 68.1 250.363L93.3 220.663C98.1 224.463 107.6 232.763 121.8 245.563L96.9 276.163ZM136.8 276.163C127.2 267.563 117.6 258.963 108 250.363L133.2 220.663C138 224.463 147.5 232.763 161.7 245.563L136.8 276.163ZM256.526 383.263C253.926 383.263 251.726 380.763 249.926 375.763C248.126 370.763 247.226 364.763 247.226 357.763C247.226 352.963 247.926 348.663 249.326 344.863C250.526 341.063 252.326 338.063 254.726 335.863C256.926 333.663 259.226 332.563 261.626 332.563C268.426 332.563 275.126 332.563 281.726 332.563C301.326 332.163 316.726 331.163 327.926 329.563C339.126 327.963 348.726 324.963 356.726 320.563C365.526 315.763 373.326 310.763 380.126 305.563C386.926 300.163 393.126 294.063 398.726 287.263L398.126 296.563C392.126 295.163 385.826 294.163 379.226 293.563C372.626 292.763 365.126 292.363 356.726 292.363C346.926 292.363 337.226 292.863 327.626 293.863C318.026 294.663 307.326 296.263 295.526 298.663L300.326 288.463C306.126 289.663 313.026 292.563 321.026 297.163C329.226 301.763 338.726 307.663 349.526 314.863C352.726 316.863 355.926 318.863 359.126 320.863C363.926 323.863 369.826 326.263 376.826 328.063C383.826 329.663 392.226 330.863 402.026 331.663C412.026 332.263 424.326 332.563 438.926 332.563C441.926 332.563 444.126 334.863 445.526 339.463C447.126 343.863 447.926 349.763 447.926 357.163C447.926 364.963 446.626 371.263 444.026 376.063C441.426 380.863 438.026 383.263 433.826 383.263C421.826 383.263 411.226 382.363 402.026 380.563C392.826 378.963 383.726 376.063 374.726 371.863C365.926 367.463 356.426 361.363 346.226 353.563C343.026 351.163 338.226 347.163 331.826 341.563C327.626 337.963 323.226 334.363 318.626 330.763C314.226 327.163 310.426 324.363 307.226 322.363C301.426 318.763 296.026 315.963 291.026 313.963C286.026 311.763 281.226 310.363 276.626 309.763C277.626 299.763 279.526 289.563 282.326 279.163C285.326 268.563 288.926 261.663 293.126 258.463C298.526 254.463 307.126 251.163 318.926 248.563C330.726 245.963 343.826 244.663 358.226 244.663C371.626 244.663 383.926 245.963 395.126 248.563C406.326 250.963 413.426 254.163 416.426 258.163C417.826 259.963 418.626 264.063 418.826 270.463C419.226 276.663 419.226 281.963 418.826 286.363C418.026 295.163 412.226 305.863 401.426 318.463C390.826 330.863 378.226 342.163 363.626 352.363C349.226 362.363 333.326 370.063 315.926 375.463C298.726 380.663 278.926 383.263 256.526 383.263ZM523.472 383.263C509.272 383.263 498.172 381.463 490.172 377.863C482.372 374.063 476.772 368.463 473.372 361.063C470.172 353.463 468.372 343.563 467.972 331.363L462.872 180.163L503.972 166.363L505.772 310.663C505.972 317.063 506.572 321.763 507.572 324.763C508.572 327.763 510.572 329.863 513.572 331.063C516.772 332.063 521.772 332.563 528.572 332.563C531.772 332.563 534.072 334.763 535.472 339.163C537.072 343.363 537.872 349.163 537.872 356.563C537.872 364.163 536.572 370.563 533.972 375.763C531.372 380.763 527.872 383.263 523.472 383.263ZM433.772 383.263C430.772 383.263 428.472 381.163 426.872 376.963C425.272 372.563 424.472 366.063 424.472 357.463C424.472 349.063 425.772 342.863 428.372 338.863C430.972 334.663 434.472 332.563 438.872 332.563C447.272 332.563 454.472 331.963 460.472 330.763C466.672 329.363 473.172 327.163 479.972 324.163L491.672 348.463C487.272 356.463 482.372 363.063 476.972 368.263C471.572 373.263 465.272 377.063 458.072 379.663C451.072 382.063 442.972 383.263 433.772 383.263ZM523.42 383.263C520.42 383.263 518.12 381.163 516.52 376.963C514.92 372.563 514.12 365.963 514.12 357.163C514.12 352.363 514.82 348.163 516.22 344.563C517.62 340.763 519.42 337.863 521.62 335.863C523.82 333.663 526.12 332.563 528.52 332.563C533.52 332.563 538.42 332.563 543.22 332.563C575.42 332.563 601.32 331.963 620.92 330.763C640.72 329.563 657.32 326.963 670.72 322.963C668.32 318.563 664.62 313.963 659.62 309.163C654.82 304.363 649.42 300.363 643.42 297.163C637.42 293.963 631.42 292.363 625.42 292.363C615.02 292.363 604.32 298.063 593.32 309.463C582.52 320.663 571.92 336.363 561.52 356.563L548.62 354.763C563.22 319.163 578.92 291.963 595.72 273.163C612.72 254.363 628.92 244.963 644.32 244.963C654.32 244.963 663.62 247.463 672.22 252.463C680.82 257.263 687.62 264.163 692.62 273.163C697.82 281.963 700.42 292.063 700.42 303.463C700.42 310.663 698.92 318.563 695.92 327.163C693.12 335.763 689.12 343.663 683.92 350.863C678.92 357.863 673.32 362.763 667.12 365.563C653.72 371.563 634.42 376.063 609.22 379.063C584.02 381.863 555.42 383.263 523.42 383.263ZM548.02 354.163L542.02 180.163L583.12 166.363L583.72 247.963C583.92 259.763 583.12 271.263 581.32 282.463C579.72 293.463 577.42 303.863 574.42 313.663L555.22 355.963L548.02 354.163Z" fill="#CFC4B2"/>
</svg>
